<?xml version="1.0" standalone="no"?>
<!DOCTYPE svg PUBLIC "-//W3C//DTD SVG 20010904//EN"
 "http://www.w3.org/TR/2001/REC-SVG-20010904/DTD/svg10.dtd">
<svg version="1.0" xmlns="http://www.w3.org/2000/svg"
 width="256.000000pt" height="256.000000pt" viewBox="0 0 256.000000 256.000000"
 preserveAspectRatio="xMidYMid meet">
<metadata>
Created by potrace 1.14, written by Peter Selinger 2001-2017
</metadata>
<g transform="translate(0.000000,256.000000) scale(0.100000,-0.100000)"
fill="#000000" stroke="none">
<path d="M1562 1910 c-148 -40 -283 -133 -363 -252 -90 -132 -109 -206 -118
-468 -8 -227 -16 -260 -81 -334 -87 -99 -274 -132 -425 -75 -55 20 -135 73
-135 88 0 5 17 27 37 51 l38 42 27 -21 c117 -92 286 -84 353 18 39 58 45 127
45 504 l0 347 88 0 88 0 54 55 54 55 -202 0 -202 0 0 -430 c0 -508 2 -500 -96
-500 -49 0 -90 23 -155 87 l-56 54 -117 -130 -117 -130 38 -46 c49 -59 151
-129 228 -156 123 -44 317 -34 427 22 54 27 131 100 162 153 46 79 57 139 63
336 3 113 11 208 20 245 42 172 182 315 360 371 160 49 395 11 512 -83 l25
-20 -43 -50 -44 -50 -50 33 c-79 52 -139 69 -242 69 -109 -1 -176 -27 -254
-100 -90 -84 -131 -183 -131 -316 0 -179 83 -315 237 -387 50 -23 71 -27 153
-27 108 0 161 16 248 73 l54 35 40 -40 41 -41 -34 -31 c-75 -68 -226 -121
-349 -121 -129 0 -275 52 -363 131 l-47 41 -10 -29 c-6 -15 -15 -40 -21 -56
-14 -34 -8 -42 76 -97 99 -64 189 -91 325 -97 211 -9 360 44 505 181 l80 75
-122 122 -121 122 -63 -56 c-172 -156 -404 -124 -491 68 -32 72 -32 199 1 273
66 147 237 206 385 133 34 -17 84 -51 113 -76 l51 -45 118 137 118 136 -56 51
c-71 65 -165 121 -248 147 -97 32 -308 36 -408 9z"/>
</g>
</svg>
